<svg width="224" height="222" viewBox="0 0 224 222" fill="none" xmlns="http://www.w3.org/2000/svg">
<g clip-path="url(#clip0_271_337)">
<path d="M205.94 110.233H128.66C119.42 110.233 112 102.837 112 93.6279V16.6047C112 6.41861 121.1 -1.53488 131.04 0.139542C177.52 8.23256 214.34 45.0698 222.32 91.1163C224 101.023 216.02 110.093 205.8 110.093L205.94 110.233Z" fill="#FF4900"/>
<path d="M112 128.372V205.395C112 214.605 104.58 222 95.34 222H18.0599C7.83994 222 -0.140055 212.93 1.53995 203.023C9.65995 156.698 46.6199 120 92.82 112.047C102.76 110.372 111.86 118.326 111.86 128.512L112 128.372Z" fill="#F9F9F9"/>
<path d="M174.86 221.86C201.999 221.86 224 199.933 224 172.884C224 145.835 201.999 123.907 174.86 123.907C147.721 123.907 125.72 145.835 125.72 172.884C125.72 199.933 147.721 221.86 174.86 221.86Z" fill="#F9F9F9"/>
<path d="M49.14 103.395C76.2793 103.395 98.28 81.4677 98.28 54.4186C98.28 27.3695 76.2793 5.44183 49.14 5.44183C22.0007 5.44183 0 27.3695 0 54.4186C0 81.4677 22.0007 103.395 49.14 103.395Z" fill="#F9F9F9"/>
</g>
<defs>
<clipPath id="clip0_271_337">
<rect width="224" height="222" fill="white"/>
</clipPath>
</defs>
</svg>
