<svg width="232" height="68" viewBox="0 0 48 13" fill="none" xmlns="http://www.w3.org/2000/svg">
<path d="M10.7401 5.78999H6.71009C6.23009 5.78999 5.84009 5.39999 5.84009 4.91999V0.889994C5.84009 0.359994 6.31009 -0.0600064 6.84009 0.0299936C9.27009 0.449994 11.1801 2.37999 11.6001 4.78999C11.6901 5.30999 11.2701 5.77999 10.7401 5.77999V5.78999Z" fill="#FF4900"/>
<path d="M5.84008 6.74V10.77C5.84008 11.25 5.45008 11.64 4.97008 11.64H0.950083C0.420083 11.64 8.27387e-05 11.17 0.0900827 10.64C0.510083 8.21 2.44008 6.3 4.85008 5.88C5.37008 5.79 5.84008 6.21 5.84008 6.74Z" fill="#F9F9F9"/>
<path d="M9.12005 11.64C10.5394 11.64 11.69 10.4894 11.69 9.07C11.69 7.65063 10.5394 6.5 9.12005 6.5C7.70068 6.5 6.55005 7.65063 6.55005 9.07C6.55005 10.4894 7.70068 11.64 9.12005 11.64Z" fill="#F9F9F9"/>
<path d="M2.57 5.43999C3.98937 5.43999 5.14 4.28936 5.14 2.86999C5.14 1.45062 3.98937 0.299988 2.57 0.299988C1.15063 0.299988 0 1.45062 0 2.86999C0 4.28936 1.15063 5.43999 2.57 5.43999Z" fill="#F9F9F9"/>
<path d="M17.4199 10.24C16.8699 10.24 16.3599 10.14 15.9099 9.96C15.4599 9.77 15.0999 9.49 14.8299 9.11C14.5599 8.73 14.4199 8.26 14.4099 7.7H15.9499C15.9599 8.07 16.0999 8.38 16.3499 8.63C16.5999 8.88 16.9599 9.01 17.3999 9.01C17.7899 9.01 18.0999 8.92 18.3199 8.74C18.5499 8.56 18.6599 8.31 18.6599 8C18.6599 7.84 18.6399 7.7 18.5899 7.58C18.5399 7.46 18.4499 7.34 18.3099 7.24C18.1699 7.13 17.9799 7.03 17.7299 6.93C17.4799 6.83 17.1599 6.71 16.7599 6.58C16.2399 6.41 15.8099 6.2 15.4999 5.98C15.1799 5.75 14.9499 5.5 14.8099 5.21C14.6699 4.92 14.5999 4.62 14.5999 4.28C14.5999 3.78 14.7199 3.36 14.9599 3.02C15.1999 2.68 15.5199 2.43 15.9299 2.26C16.3399 2.09 16.7899 2 17.2799 2C17.7699 2 18.2399 2.09 18.6399 2.26C19.0399 2.43 19.3799 2.69 19.6299 3.03C19.8799 3.37 20.0099 3.79 20.0199 4.3H18.4599C18.4599 4.01 18.3399 3.76 18.1199 3.55C17.8999 3.34 17.6099 3.23 17.2299 3.23C16.9299 3.23 16.6699 3.31 16.4499 3.47C16.2299 3.63 16.1299 3.87 16.1299 4.18C16.1299 4.41 16.2099 4.6 16.3899 4.76C16.5699 4.92 16.7899 5.06 17.0899 5.18C17.3899 5.3 17.7099 5.42 18.0599 5.55C18.2599 5.62 18.4799 5.71 18.7299 5.81C18.9799 5.92 19.2099 6.06 19.4399 6.24C19.6699 6.42 19.8599 6.64 19.9999 6.91C20.1499 7.18 20.2199 7.51 20.2199 7.91C20.2199 8.4 20.0999 8.81 19.8499 9.16C19.5999 9.51 19.2699 9.78 18.8499 9.97C18.4299 10.16 17.9499 10.25 17.4199 10.25V10.24Z" fill="#F9F9F9"/>
<path d="M23.3999 10.24C22.9099 10.24 22.4999 10.14 22.1599 9.93001C21.8199 9.72001 21.5599 9.43001 21.3699 9.06001C21.1899 8.69001 21.0999 8.27001 21.0999 7.80001V4.45001H22.5499V7.58001C22.5499 8.00001 22.6599 8.34001 22.8799 8.61001C23.0999 8.88001 23.4099 9.01001 23.8299 9.01001C24.2499 9.01001 24.5899 8.88001 24.7999 8.62001C25.0099 8.36001 25.1199 8.02001 25.1199 7.58001V4.45001H26.5799V10.1H25.1199V9.44001C24.9299 9.70001 24.6799 9.90001 24.3699 10.03C24.0599 10.16 23.7399 10.24 23.4099 10.24H23.3999Z" fill="#F9F9F9"/>
<path d="M27.5999 10.11V4.45H29.0499V5.11C29.2499 4.84 29.5099 4.64 29.8399 4.51C30.1699 4.38 30.4999 4.31 30.8399 4.31C31.4899 4.31 32.0299 4.52 32.4499 4.94C32.8699 5.36 33.0799 5.97 33.0799 6.77V10.1H31.6299V6.97C31.6299 6.54 31.5199 6.2 31.3099 5.94C31.0899 5.68 30.7799 5.55 30.3599 5.55C29.9399 5.55 29.6199 5.68 29.3999 5.94C29.1799 6.2 29.0599 6.55 29.0599 6.97V10.1H27.6099L27.5999 10.11Z" fill="#F9F9F9"/>
<path d="M35.7398 10.24C35.4098 10.24 35.0898 10.17 34.8098 10.03C34.5298 9.89001 34.2898 9.70001 34.1098 9.44001C33.9298 9.19001 33.8398 8.88001 33.8398 8.53001C33.8398 8.11001 33.9398 7.77001 34.1498 7.50001C34.3598 7.23001 34.6398 7.04001 34.9998 6.91001C35.3598 6.78001 35.7698 6.72001 36.2098 6.72001H37.5498C37.5498 6.46001 37.5098 6.24001 37.4298 6.07001C37.3498 5.90001 37.2298 5.76001 37.0798 5.67001C36.9198 5.58001 36.7298 5.53001 36.4998 5.53001C36.2298 5.53001 35.9998 5.59001 35.7898 5.71001C35.5798 5.83001 35.4498 6.02001 35.4098 6.30001H33.9498C33.9898 5.89001 34.1298 5.54001 34.3698 5.24001C34.6098 4.94001 34.9198 4.72001 35.2998 4.56001C35.6798 4.40001 36.0898 4.32001 36.5198 4.32001C37.0498 4.32001 37.4998 4.42001 37.8698 4.62001C38.2398 4.82001 38.5198 5.10001 38.7198 5.46001C38.9198 5.82001 39.0198 6.25001 39.0198 6.74001V8.46001C39.0298 8.63001 39.0998 8.74001 39.1998 8.80001C39.3098 8.86001 39.4498 8.89001 39.6198 8.89001V10.11C39.2598 10.11 38.9598 10.08 38.7298 10.01C38.4998 9.94001 38.2898 9.84001 38.1398 9.71001C37.9898 9.58001 37.8598 9.41001 37.7498 9.20001C37.5798 9.50001 37.2998 9.74001 36.9398 9.95001C36.5698 10.15 36.1698 10.25 35.7398 10.25V10.24ZM36.1598 9.07001C36.4098 9.07001 36.6398 9.01001 36.8498 8.90001C37.0598 8.79001 37.2298 8.63001 37.3598 8.42001C37.4898 8.21001 37.5498 7.98001 37.5498 7.71001V7.66001H36.2998C36.1298 7.66001 35.9698 7.68001 35.8198 7.73001C35.6698 7.78001 35.5498 7.86001 35.4498 7.96001C35.3598 8.06001 35.3098 8.20001 35.3098 8.38001C35.3098 8.62001 35.3898 8.79001 35.5598 8.90001C35.7198 9.01001 35.9198 9.07001 36.1598 9.07001Z" fill="#F9F9F9"/>
<path d="M40.3298 10.11V4.45H41.7798V5.29C41.9798 4.97 42.2298 4.73 42.5298 4.56C42.8298 4.39 43.1698 4.31 43.5398 4.31V5.84H43.1498C42.6898 5.84 42.3398 5.95 42.1098 6.17C41.8798 6.39 41.7698 6.76 41.7698 7.28V10.11H40.3198H40.3298Z" fill="#F9F9F9"/>
<path d="M46.56 10.11C45.95 10.11 45.49 9.95999 45.19 9.66999C44.89 9.37999 44.73 8.92999 44.73 8.33999V5.67999H44V4.45999H44.73V3.07999H46.19V4.45999H47.48V5.67999H46.19V8.34999C46.19 8.55999 46.25 8.70999 46.36 8.77999C46.47 8.85999 46.62 8.88999 46.8 8.88999H47.47V10.11H46.56Z" fill="#F9F9F9"/>
</svg>
