<svg width="232" height="68" viewBox="0 0 232 68" fill="none" xmlns="http://www.w3.org/2000/svg">
<g clip-path="url(#clip0_231_206)">
<mask id="mask0_231_206" style="mask-type:luminance" maskUnits="userSpaceOnUse" x="0" y="0" width="232" height="68">
<path d="M232 0H0V68H232V0Z" fill="white"/>
</mask>
<g mask="url(#mask0_231_206)">
<path d="M3.41103 6.78862C5.2949 6.78862 6.82207 5.26894 6.82207 3.39431C6.82207 1.51968 5.2949 0 3.41103 0C1.52717 0 0 1.51968 0 3.39431C0 5.26894 1.52717 6.78862 3.41103 6.78862Z" fill="#FF4900"/>
<path d="M25.1254 6.78862C27.0093 6.78862 28.5364 5.26894 28.5364 3.39431C28.5364 1.51968 27.0093 0 25.1254 0C23.2415 0 21.7144 1.51968 21.7144 3.39431C21.7144 5.26894 23.2415 6.78862 25.1254 6.78862Z" fill="#FF4900"/>
<path d="M46.8446 6.78862C48.7285 6.78862 50.2557 5.26894 50.2557 3.39431C50.2557 1.51968 48.7285 0 46.8446 0C44.9608 0 43.4336 1.51968 43.4336 3.39431C43.4336 5.26894 44.9608 6.78862 46.8446 6.78862Z" fill="#FF4900"/>
<path d="M68.5639 6.78862C70.4477 6.78862 71.9749 5.26894 71.9749 3.39431C71.9749 1.51968 70.4477 0 68.5639 0C66.68 0 65.1528 1.51968 65.1528 3.39431C65.1528 5.26894 66.68 6.78862 68.5639 6.78862Z" fill="#FF4900"/>
<path d="M90.278 6.78862C92.1618 6.78862 93.689 5.26894 93.689 3.39431C93.689 1.51968 92.1618 0 90.278 0C88.3941 0 86.8669 1.51968 86.8669 3.39431C86.8669 5.26894 88.3941 6.78862 90.278 6.78862Z" fill="#FF4900"/>
<path d="M111.997 6.78862C113.881 6.78862 115.408 5.26894 115.408 3.39431C115.408 1.51968 113.881 0 111.997 0C110.113 0 108.586 1.51968 108.586 3.39431C108.586 5.26894 110.113 6.78862 111.997 6.78862Z" fill="#FF4900"/>
<path d="M133.712 6.78862C135.595 6.78862 137.123 5.26894 137.123 3.39431C137.123 1.51968 135.595 0 133.712 0C131.828 0 130.301 1.51968 130.301 3.39431C130.301 5.26894 131.828 6.78862 133.712 6.78862Z" fill="#FF4900"/>
<path d="M155.431 6.78862C157.315 6.78862 158.842 5.26894 158.842 3.39431C158.842 1.51968 157.315 0 155.431 0C153.547 0 152.02 1.51968 152.02 3.39431C152.02 5.26894 153.547 6.78862 155.431 6.78862Z" fill="#FF4900"/>
<path d="M177.15 6.78862C179.034 6.78862 180.561 5.26894 180.561 3.39431C180.561 1.51968 179.034 0 177.15 0C175.266 0 173.739 1.51968 173.739 3.39431C173.739 5.26894 175.266 6.78862 177.15 6.78862Z" fill="#FF4900"/>
<path d="M198.864 6.78862C200.748 6.78862 202.275 5.26894 202.275 3.39431C202.275 1.51968 200.748 0 198.864 0C196.98 0 195.453 1.51968 195.453 3.39431C195.453 5.26894 196.98 6.78862 198.864 6.78862Z" fill="#FF4900"/>
<path d="M220.583 6.78862C222.467 6.78862 223.994 5.26894 223.994 3.39431C223.994 1.51968 222.467 0 220.583 0C218.7 0 217.172 1.51968 217.172 3.39431C217.172 5.26894 218.7 6.78862 220.583 6.78862Z" fill="#FF4900"/>
<path d="M3.41103 25.7443C5.2949 25.7443 6.82207 24.2246 6.82207 22.35C6.82207 20.4754 5.2949 18.9557 3.41103 18.9557C1.52717 18.9557 0 20.4754 0 22.35C0 24.2246 1.52717 25.7443 3.41103 25.7443Z" fill="#FF4900"/>
<path d="M25.1254 25.7443C27.0093 25.7443 28.5364 24.2246 28.5364 22.35C28.5364 20.4754 27.0093 18.9557 25.1254 18.9557C23.2415 18.9557 21.7144 20.4754 21.7144 22.35C21.7144 24.2246 23.2415 25.7443 25.1254 25.7443Z" fill="#FF4900"/>
<path d="M46.8446 25.7443C48.7285 25.7443 50.2557 24.2246 50.2557 22.35C50.2557 20.4754 48.7285 18.9557 46.8446 18.9557C44.9608 18.9557 43.4336 20.4754 43.4336 22.35C43.4336 24.2246 44.9608 25.7443 46.8446 25.7443Z" fill="#FF4900"/>
<path d="M68.5639 25.7443C70.4477 25.7443 71.9749 24.2246 71.9749 22.35C71.9749 20.4754 70.4477 18.9557 68.5639 18.9557C66.68 18.9557 65.1528 20.4754 65.1528 22.35C65.1528 24.2246 66.68 25.7443 68.5639 25.7443Z" fill="#FF4900"/>
<path d="M90.278 25.7443C92.1618 25.7443 93.689 24.2246 93.689 22.35C93.689 20.4754 92.1618 18.9557 90.278 18.9557C88.3941 18.9557 86.8669 20.4754 86.8669 22.35C86.8669 24.2246 88.3941 25.7443 90.278 25.7443Z" fill="#FF4900"/>
<path d="M111.997 25.7443C113.881 25.7443 115.408 24.2246 115.408 22.35C115.408 20.4754 113.881 18.9557 111.997 18.9557C110.113 18.9557 108.586 20.4754 108.586 22.35C108.586 24.2246 110.113 25.7443 111.997 25.7443Z" fill="#FF4900"/>
<path d="M133.712 25.7443C135.595 25.7443 137.123 24.2246 137.123 22.35C137.123 20.4754 135.595 18.9557 133.712 18.9557C131.828 18.9557 130.301 20.4754 130.301 22.35C130.301 24.2246 131.828 25.7443 133.712 25.7443Z" fill="#FF4900"/>
<path d="M155.431 25.7443C157.315 25.7443 158.842 24.2246 158.842 22.35C158.842 20.4754 157.315 18.9557 155.431 18.9557C153.547 18.9557 152.02 20.4754 152.02 22.35C152.02 24.2246 153.547 25.7443 155.431 25.7443Z" fill="#FF4900"/>
<path d="M177.15 25.7443C179.034 25.7443 180.561 24.2246 180.561 22.35C180.561 20.4754 179.034 18.9557 177.15 18.9557C175.266 18.9557 173.739 20.4754 173.739 22.35C173.739 24.2246 175.266 25.7443 177.15 25.7443Z" fill="#FF4900"/>
<path d="M198.864 25.7443C200.748 25.7443 202.275 24.2246 202.275 22.35C202.275 20.4754 200.748 18.9557 198.864 18.9557C196.98 18.9557 195.453 20.4754 195.453 22.35C195.453 24.2246 196.98 25.7443 198.864 25.7443Z" fill="#FF4900"/>
<path d="M220.583 25.7443C222.467 25.7443 223.994 24.2246 223.994 22.35C223.994 20.4754 222.467 18.9557 220.583 18.9557C218.7 18.9557 217.172 20.4754 217.172 22.35C217.172 24.2246 218.7 25.7443 220.583 25.7443Z" fill="#FF4900"/>
<path d="M3.41103 44.7C5.2949 44.7 6.82207 43.1803 6.82207 41.3057C6.82207 39.4311 5.2949 37.9114 3.41103 37.9114C1.52717 37.9114 0 39.4311 0 41.3057C0 43.1803 1.52717 44.7 3.41103 44.7Z" fill="#FF4900"/>
<path d="M25.1254 44.7C27.0093 44.7 28.5364 43.1803 28.5364 41.3057C28.5364 39.4311 27.0093 37.9114 25.1254 37.9114C23.2415 37.9114 21.7144 39.4311 21.7144 41.3057C21.7144 43.1803 23.2415 44.7 25.1254 44.7Z" fill="#FF4900"/>
<path d="M46.8446 44.7C48.7285 44.7 50.2557 43.1803 50.2557 41.3057C50.2557 39.4311 48.7285 37.9114 46.8446 37.9114C44.9608 37.9114 43.4336 39.4311 43.4336 41.3057C43.4336 43.1803 44.9608 44.7 46.8446 44.7Z" fill="#FF4900"/>
<path d="M68.5639 44.7C70.4477 44.7 71.9749 43.1803 71.9749 41.3057C71.9749 39.4311 70.4477 37.9114 68.5639 37.9114C66.68 37.9114 65.1528 39.4311 65.1528 41.3057C65.1528 43.1803 66.68 44.7 68.5639 44.7Z" fill="#FF4900"/>
<path d="M90.278 44.7C92.1618 44.7 93.689 43.1803 93.689 41.3057C93.689 39.4311 92.1618 37.9114 90.278 37.9114C88.3941 37.9114 86.8669 39.4311 86.8669 41.3057C86.8669 43.1803 88.3941 44.7 90.278 44.7Z" fill="#FF4900"/>
<path d="M111.997 44.7C113.881 44.7 115.408 43.1803 115.408 41.3057C115.408 39.4311 113.881 37.9114 111.997 37.9114C110.113 37.9114 108.586 39.4311 108.586 41.3057C108.586 43.1803 110.113 44.7 111.997 44.7Z" fill="#FF4900"/>
<path d="M133.712 44.7C135.595 44.7 137.123 43.1803 137.123 41.3057C137.123 39.4311 135.595 37.9114 133.712 37.9114C131.828 37.9114 130.301 39.4311 130.301 41.3057C130.301 43.1803 131.828 44.7 133.712 44.7Z" fill="#FF4900"/>
<path d="M155.431 44.7C157.315 44.7 158.842 43.1803 158.842 41.3057C158.842 39.4311 157.315 37.9114 155.431 37.9114C153.547 37.9114 152.02 39.4311 152.02 41.3057C152.02 43.1803 153.547 44.7 155.431 44.7Z" fill="#FF4900"/>
<path d="M177.15 44.7C179.034 44.7 180.561 43.1803 180.561 41.3057C180.561 39.4311 179.034 37.9114 177.15 37.9114C175.266 37.9114 173.739 39.4311 173.739 41.3057C173.739 43.1803 175.266 44.7 177.15 44.7Z" fill="#FF4900"/>
<path d="M198.864 44.7C200.748 44.7 202.275 43.1803 202.275 41.3057C202.275 39.4311 200.748 37.9114 198.864 37.9114C196.98 37.9114 195.453 39.4311 195.453 41.3057C195.453 43.1803 196.98 44.7 198.864 44.7Z" fill="#FF4900"/>
<path d="M220.583 44.7C222.467 44.7 223.994 43.1803 223.994 41.3057C223.994 39.4311 222.467 37.9114 220.583 37.9114C218.7 37.9114 217.172 39.4311 217.172 41.3057C217.172 43.1803 218.7 44.7 220.583 44.7Z" fill="#FF4900"/>
<path d="M3.41103 63.6606C5.2949 63.6606 6.82207 62.1409 6.82207 60.2663C6.82207 58.3917 5.2949 56.872 3.41103 56.872C1.52717 56.872 0 58.3917 0 60.2663C0 62.1409 1.52717 63.6606 3.41103 63.6606Z" fill="#FF4900"/>
<path d="M25.1254 63.6606C27.0093 63.6606 28.5364 62.1409 28.5364 60.2663C28.5364 58.3917 27.0093 56.872 25.1254 56.872C23.2415 56.872 21.7144 58.3917 21.7144 60.2663C21.7144 62.1409 23.2415 63.6606 25.1254 63.6606Z" fill="#FF4900"/>
<path d="M46.8446 63.6606C48.7285 63.6606 50.2557 62.1409 50.2557 60.2663C50.2557 58.3917 48.7285 56.872 46.8446 56.872C44.9608 56.872 43.4336 58.3917 43.4336 60.2663C43.4336 62.1409 44.9608 63.6606 46.8446 63.6606Z" fill="#FF4900"/>
<path d="M68.5639 63.6606C70.4477 63.6606 71.9749 62.1409 71.9749 60.2663C71.9749 58.3917 70.4477 56.872 68.5639 56.872C66.68 56.872 65.1528 58.3917 65.1528 60.2663C65.1528 62.1409 66.68 63.6606 68.5639 63.6606Z" fill="#FF4900"/>
<path d="M90.278 63.6606C92.1618 63.6606 93.689 62.1409 93.689 60.2663C93.689 58.3917 92.1618 56.872 90.278 56.872C88.3941 56.872 86.8669 58.3917 86.8669 60.2663C86.8669 62.1409 88.3941 63.6606 90.278 63.6606Z" fill="#FF4900"/>
<path d="M111.997 63.6606C113.881 63.6606 115.408 62.1409 115.408 60.2663C115.408 58.3917 113.881 56.872 111.997 56.872C110.113 56.872 108.586 58.3917 108.586 60.2663C108.586 62.1409 110.113 63.6606 111.997 63.6606Z" fill="#FF4900"/>
<path d="M133.712 63.6606C135.595 63.6606 137.123 62.1409 137.123 60.2663C137.123 58.3917 135.595 56.872 133.712 56.872C131.828 56.872 130.301 58.3917 130.301 60.2663C130.301 62.1409 131.828 63.6606 133.712 63.6606Z" fill="#FF4900"/>
<path d="M155.431 63.6606C157.315 63.6606 158.842 62.1409 158.842 60.2663C158.842 58.3917 157.315 56.872 155.431 56.872C153.547 56.872 152.02 58.3917 152.02 60.2663C152.02 62.1409 153.547 63.6606 155.431 63.6606Z" fill="#FF4900"/>
<path d="M177.15 63.6606C179.034 63.6606 180.561 62.1409 180.561 60.2663C180.561 58.3917 179.034 56.872 177.15 56.872C175.266 56.872 173.739 58.3917 173.739 60.2663C173.739 62.1409 175.266 63.6606 177.15 63.6606Z" fill="#FF4900"/>
<path d="M198.864 63.6606C200.748 63.6606 202.275 62.1409 202.275 60.2663C202.275 58.3917 200.748 56.872 198.864 56.872C196.98 56.872 195.453 58.3917 195.453 60.2663C195.453 62.1409 196.98 63.6606 198.864 63.6606Z" fill="#FF4900"/>
<path d="M220.583 63.6606C222.467 63.6606 223.994 62.1409 223.994 60.2663C223.994 58.3917 222.467 56.872 220.583 56.872C218.7 56.872 217.172 58.3917 217.172 60.2663C217.172 62.1409 218.7 63.6606 220.583 63.6606Z" fill="#FF4900"/>
</g>
</g>
<defs>
<clipPath id="clip0_231_206">
<rect width="232" height="68" fill="white"/>
</clipPath>
</defs>
</svg>
