<?xml version="1.0" encoding="UTF-8"?>
<svg id="Capa_1" data-name="Capa 1" xmlns="http://www.w3.org/2000/svg" viewBox="0 0 50 14.89">
  <defs>
    <style>
      .cls-1 {
        fill: #ff4900;
      }

      .cls-1, .cls-2 {
        stroke-width: 0px;
      }

      .cls-2 {
        fill: #f9f9f9;
      }
    </style>
  </defs>
  <g>
    <path class="cls-1" d="m11.74,7.88h-4.03c-.48,0-.87-.39-.87-.87V2.99c0-.53.47-.95,1-.86,2.43.42,4.34,2.35,4.76,4.76.09.52-.33.99-.86.99Z"/>
    <path class="cls-2" d="m6.84,8.84v4.03c0,.48-.39.87-.87.87H1.95c-.53,0-.95-.47-.86-1,.42-2.43,2.35-4.34,4.76-4.76.52-.09.99.33.99.86Z"/>
    <circle class="cls-2" cx="10.12" cy="11.17" r="2.57"/>
    <circle class="cls-2" cx="3.57" cy="4.96" r="2.57"/>
  </g>
  <g>
    <g>
      <path class="cls-2" d="m18.42,10.34c-.55,0-1.06-.1-1.51-.28-.45-.19-.81-.47-1.08-.85-.27-.38-.41-.85-.42-1.41h1.54c.01.37.15.68.4.93.25.25.61.38,1.05.38.39,0,.7-.09.92-.27.23-.18.34-.43.34-.74,0-.16-.02-.3-.07-.42-.05-.12-.14-.24-.28-.34-.14-.11-.33-.21-.58-.31s-.57-.22-.97-.35c-.52-.17-.95-.38-1.26-.6-.32-.23-.55-.48-.69-.77-.14-.29-.21-.59-.21-.93,0-.5.12-.92.36-1.26.24-.34.56-.59.97-.76s.86-.26,1.35-.26.96.09,1.36.26.74.43.99.77c.25.34.38.76.39,1.27h-1.56c0-.29-.12-.54-.34-.75-.22-.21-.51-.32-.89-.32-.3,0-.56.08-.78.24s-.32.4-.32.71c0,.23.08.42.26.58s.4.3.7.42.62.24.97.37c.2.07.42.16.67.26.25.11.48.25.71.43.23.18.42.4.56.67.15.27.22.6.22,1,0,.49-.12.9-.37,1.25-.25.35-.58.62-1,.81-.42.19-.9.28-1.43.28Z"/>
      <path class="cls-2" d="m24.4,10.34c-.49,0-.9-.1-1.24-.31s-.6-.5-.79-.87c-.18-.37-.27-.79-.27-1.26v-3.35h1.45v3.13c0,.42.11.76.33,1.03.22.27.53.4.95.4s.76-.13.97-.39c.21-.26.32-.6.32-1.04v-3.13h1.46v5.65h-1.46v-.66c-.19.26-.44.46-.75.59s-.63.21-.96.21Z"/>
      <path class="cls-2" d="m28.6,10.2v-5.65h1.45v.66c.2-.27.46-.47.79-.6.33-.13.66-.2,1-.2.65,0,1.19.21,1.61.63.42.42.63,1.03.63,1.83v3.33h-1.45v-3.13c0-.43-.11-.77-.32-1.03-.22-.26-.53-.39-.95-.39s-.74.13-.96.39c-.22.26-.34.61-.34,1.03v3.13h-1.45Z"/>
      <path class="cls-2" d="m36.74,10.34c-.33,0-.65-.07-.93-.21s-.52-.33-.7-.59c-.18-.25-.27-.56-.27-.91,0-.42.1-.76.31-1.03.21-.27.49-.46.85-.59.36-.13.77-.19,1.21-.19h1.34c0-.26-.04-.48-.12-.65-.08-.17-.2-.31-.35-.4-.16-.09-.35-.14-.58-.14-.27,0-.5.06-.71.18-.21.12-.34.31-.38.59h-1.46c.04-.41.18-.76.42-1.06s.55-.52.93-.68.79-.24,1.22-.24c.53,0,.98.1,1.35.3.37.2.65.48.85.84s.3.79.3,1.28v1.72c.01.17.08.28.18.34.11.06.25.09.42.09v1.22c-.36,0-.66-.03-.89-.1s-.44-.17-.59-.3c-.15-.13-.28-.3-.39-.51-.17.3-.45.54-.81.75-.37.2-.77.3-1.2.3Zm.42-1.17c.25,0,.48-.06.69-.17.21-.11.38-.27.51-.48.13-.21.19-.44.19-.71v-.05h-1.25c-.17,0-.33.02-.48.07-.15.05-.27.13-.37.23-.09.1-.14.24-.14.42,0,.24.08.41.25.52.16.11.36.17.6.17Z"/>
      <path class="cls-2" d="m41.33,10.2v-5.65h1.45v.84c.2-.32.45-.56.75-.73.3-.17.64-.25,1.01-.25v1.53h-.39c-.46,0-.81.11-1.04.33-.23.22-.34.59-.34,1.11v2.83h-1.45Z"/>
      <path class="cls-2" d="m47.56,10.2c-.61,0-1.07-.15-1.37-.44s-.46-.74-.46-1.33v-2.66h-.73v-1.22h.73v-1.38h1.46v1.38h1.29v1.22h-1.29v2.67c0,.21.06.36.17.43.11.08.26.11.44.11h.67v1.22h-.91Z"/>
    </g>
    <g>
      <path class="cls-2" d="m17.22,12.2h-.81l-.09.71h.71v.1h-.72l-.1.78h-.12l.21-1.69h.93v.1Z"/>
      <path class="cls-2" d="m17.23,13.79l.14-1.19h.05s.04.01.04.04l-.04.35c.05-.13.12-.23.19-.3.07-.07.14-.11.22-.11.03,0,.07,0,.1.02l-.02.11s-.07-.02-.1-.02c-.08,0-.16.04-.23.13-.07.08-.13.21-.17.36l-.07.6h-.11Z"/>
      <path class="cls-2" d="m18.38,13.8c-.06,0-.12-.01-.17-.03-.05-.02-.1-.05-.13-.1-.04-.04-.07-.09-.09-.15s-.03-.13-.03-.2c0-.1.01-.19.04-.28.03-.09.07-.17.12-.23.05-.07.11-.12.19-.16.07-.04.15-.06.24-.06.06,0,.12.01.17.03.05.02.1.06.13.1.04.04.07.09.09.15s.03.13.03.2c0,.1-.01.19-.04.28-.03.09-.07.17-.12.23-.05.07-.11.12-.19.16-.07.04-.15.06-.24.06Zm0-.09c.07,0,.13-.02.19-.05s.11-.08.15-.14c.04-.06.07-.13.09-.21.02-.08.03-.16.03-.24,0-.13-.03-.23-.08-.29-.06-.07-.13-.1-.23-.1-.05,0-.09,0-.13.02-.04.02-.08.04-.11.07-.03.03-.07.06-.09.1-.03.04-.05.08-.07.13-.02.05-.03.1-.04.15s-.01.11-.01.16c0,.13.03.22.08.29.06.07.13.1.24.1Z"/>
      <path class="cls-2" d="m19.17,13.79l.14-1.19h.05s.04.01.04.04l-.04.34c.03-.06.07-.12.11-.17.04-.05.08-.09.12-.13.04-.03.09-.06.13-.08.05-.02.09-.03.14-.03.09,0,.16.03.2.09.04.06.07.14.07.25,0,0,0,.02,0,.02,0,0,0,.02,0,.04,0,.02,0,.05,0,.08s0,.08-.02.15c0,.06-.02.14-.03.23-.01.09-.02.21-.04.34h-.11l.09-.76s0-.07,0-.1c0-.08-.02-.14-.05-.18-.03-.04-.08-.06-.15-.06-.04,0-.09.01-.13.03s-.09.05-.13.1c-.04.04-.08.09-.12.15-.04.06-.07.13-.1.2l-.07.63h-.11Z"/>
      <path class="cls-2" d="m20.48,13.59v-.02s0-.02,0-.03c0-.01,0-.03,0-.06,0-.02,0-.05,0-.09l.08-.67h-.16s-.02,0-.02-.02v-.05s.19-.01.19-.01l.08-.42s0-.01.01-.02c0,0,.01,0,.02,0h.05l-.06.45h.34v.08h-.35l-.08.67s0,.06,0,.08c0,.02,0,.04,0,.05s0,.02,0,.03,0,.01,0,.01c0,.05.01.09.04.11s.05.03.09.03c.03,0,.05,0,.07-.01.02,0,.04-.02.05-.03.02,0,.03-.02.04-.03,0,0,.02-.01.02-.01s0,0,.01,0c0,0,0,0,0,0l.02.05s-.07.06-.12.08c-.04.02-.09.03-.14.03-.07,0-.12-.02-.15-.05s-.06-.09-.06-.16Z"/>
      <path class="cls-2" d="m21.19,13.03h.51v.09h-.52v-.09Z"/>
      <path class="cls-2" d="m22.79,12.83s0,.06-.01.09c0,.03-.02.06-.05.08-.02.03-.05.05-.09.07s-.09.04-.15.06-.13.04-.21.05-.18.03-.29.04c0,.02,0,.03,0,.05,0,.02,0,.03,0,.05,0,.12.03.21.08.28s.13.1.24.1c.04,0,.08,0,.11-.01.03,0,.06-.02.09-.04.03-.01.05-.03.07-.05.02-.02.04-.03.05-.05.02-.01.03-.03.04-.04.01,0,.02-.01.03-.01,0,0,.02,0,.02.01l.03.03s-.08.08-.11.11c-.04.03-.08.05-.11.07-.04.02-.08.03-.12.04-.04,0-.08.01-.13.01-.07,0-.12-.01-.18-.03-.05-.02-.09-.05-.13-.09-.03-.04-.06-.09-.08-.15-.02-.06-.03-.12-.03-.19,0-.06,0-.12.02-.18.01-.06.03-.12.05-.17s.05-.11.09-.16c.04-.05.07-.09.12-.13.04-.04.09-.06.15-.08.05-.02.11-.03.18-.03.06,0,.11,0,.15.02.04.02.07.04.1.06.03.02.04.05.05.08.01.03.02.05.02.08Zm-.32-.16c-.06,0-.12.01-.17.04-.05.03-.1.06-.14.11s-.07.1-.1.16c-.03.06-.05.12-.06.19.1-.01.19-.02.26-.04.07-.01.13-.03.19-.05.05-.02.09-.03.12-.05.03-.02.06-.04.07-.06.02-.02.03-.04.04-.06s0-.04,0-.07c0-.02,0-.03-.01-.05,0-.02-.02-.04-.04-.05-.02-.02-.04-.03-.07-.04s-.06-.02-.1-.02Z"/>
      <path class="cls-2" d="m22.97,13.79l.14-1.19h.05s.04.01.04.04l-.04.34c.03-.06.07-.12.11-.17.04-.05.08-.09.12-.13.04-.03.09-.06.13-.08.05-.02.09-.03.14-.03.09,0,.16.03.2.09.04.06.07.14.07.25,0,0,0,.02,0,.02,0,0,0,.02,0,.04,0,.02,0,.05,0,.08s0,.08-.02.15c0,.06-.02.14-.03.23-.01.09-.02.21-.04.34h-.11l.09-.76s0-.07,0-.1c0-.08-.02-.14-.05-.18-.03-.04-.08-.06-.15-.06-.04,0-.09.01-.13.03s-.09.05-.13.1c-.04.04-.08.09-.12.15-.04.06-.07.13-.1.2l-.07.63h-.11Z"/>
      <path class="cls-2" d="m24.98,13.79s-.03,0-.03-.01,0-.02,0-.03l.04-.38c-.03.06-.07.12-.1.18-.04.05-.08.1-.12.14-.04.04-.09.07-.13.09-.05.02-.09.03-.14.03-.05,0-.1-.01-.14-.03-.04-.02-.07-.05-.1-.08s-.05-.08-.06-.13-.02-.11-.02-.17c0-.06,0-.12.02-.19.01-.06.03-.12.05-.18s.05-.11.09-.17c.03-.05.07-.1.12-.14s.09-.07.14-.09c.05-.02.11-.03.16-.03.06,0,.12.01.18.04.05.03.1.07.13.13l.09-.7h.11l-.21,1.74h-.05Zm-.47-.08s.09-.01.14-.04c.04-.03.09-.06.13-.11.04-.05.08-.1.12-.17s.07-.14.1-.22l.04-.34c-.03-.06-.08-.11-.13-.13-.05-.03-.1-.04-.16-.04-.05,0-.1.01-.14.03-.04.02-.08.05-.12.08-.04.03-.07.08-.09.12-.03.05-.05.09-.07.15s-.03.1-.04.16c0,.05-.01.11-.01.16,0,.11.02.19.06.25.04.06.1.09.18.09Z"/>
      <path class="cls-2" d="m26.65,13.79s-.03,0-.03-.01,0-.02,0-.03l.04-.38c-.03.06-.07.12-.1.18-.04.05-.08.1-.12.14-.04.04-.09.07-.13.09-.05.02-.09.03-.14.03-.05,0-.1-.01-.14-.03-.04-.02-.07-.05-.1-.08s-.05-.08-.06-.13-.02-.11-.02-.17c0-.06,0-.12.02-.19.01-.06.03-.12.05-.18s.05-.11.09-.17c.03-.05.07-.1.12-.14s.09-.07.14-.09c.05-.02.11-.03.16-.03.06,0,.12.01.18.04.05.03.1.07.13.13l.09-.7h.11l-.21,1.74h-.05Zm-.47-.08s.09-.01.14-.04c.04-.03.09-.06.13-.11.04-.05.08-.1.12-.17s.07-.14.1-.22l.04-.34c-.03-.06-.08-.11-.13-.13-.05-.03-.1-.04-.16-.04-.05,0-.1.01-.14.03-.04.02-.08.05-.12.08-.04.03-.07.08-.09.12-.03.05-.05.09-.07.15s-.03.1-.04.16c0,.05-.01.11-.01.16,0,.11.02.19.06.25.04.06.1.09.18.09Z"/>
      <path class="cls-2" d="m27.98,12.83s0,.06-.01.09c0,.03-.02.06-.05.08-.02.03-.05.05-.09.07s-.09.04-.15.06-.13.04-.21.05-.18.03-.29.04c0,.02,0,.03,0,.05,0,.02,0,.03,0,.05,0,.12.03.21.08.28s.13.1.24.1c.04,0,.08,0,.11-.01.03,0,.06-.02.09-.04.03-.01.05-.03.07-.05.02-.02.04-.03.05-.05.02-.01.03-.03.04-.04.01,0,.02-.01.03-.01,0,0,.02,0,.02.01l.03.03s-.08.08-.11.11c-.04.03-.08.05-.11.07-.04.02-.08.03-.12.04-.04,0-.08.01-.13.01-.07,0-.12-.01-.18-.03-.05-.02-.09-.05-.13-.09-.03-.04-.06-.09-.08-.15-.02-.06-.03-.12-.03-.19,0-.06,0-.12.02-.18.01-.06.03-.12.05-.17s.05-.11.09-.16c.04-.05.07-.09.12-.13.04-.04.09-.06.15-.08.05-.02.11-.03.18-.03.06,0,.11,0,.15.02.04.02.07.04.1.06.03.02.04.05.05.08.01.03.02.05.02.08Zm-.32-.16c-.06,0-.12.01-.17.04-.05.03-.1.06-.14.11s-.07.1-.1.16c-.03.06-.05.12-.06.19.1-.01.19-.02.26-.04.07-.01.13-.03.19-.05.05-.02.09-.03.12-.05.03-.02.06-.04.07-.06.02-.02.03-.04.04-.06s0-.04,0-.07c0-.02,0-.03-.01-.05,0-.02-.02-.04-.04-.05-.02-.02-.04-.03-.07-.04s-.06-.02-.1-.02Z"/>
      <path class="cls-2" d="m28.14,12.6h.09s.02,0,.03,0,0,.01.01.02l.24.94s0,.04,0,.05c0,.02,0,.04,0,.05,0-.03.02-.07.04-.11l.47-.94s0-.02.02-.02c0,0,.02,0,.02,0h.08l-.61,1.19h-.09l-.32-1.19Z"/>
      <path class="cls-2" d="m30.1,12.83s0,.06-.01.09c0,.03-.02.06-.05.08-.02.03-.05.05-.09.07s-.09.04-.15.06-.13.04-.21.05-.18.03-.29.04c0,.02,0,.03,0,.05,0,.02,0,.03,0,.05,0,.12.03.21.08.28s.13.1.24.1c.04,0,.08,0,.11-.01.03,0,.06-.02.09-.04.03-.01.05-.03.07-.05.02-.02.04-.03.05-.05.02-.01.03-.03.04-.04.01,0,.02-.01.03-.01,0,0,.02,0,.02.01l.03.03s-.08.08-.11.11c-.04.03-.08.05-.11.07-.04.02-.08.03-.12.04-.04,0-.08.01-.13.01-.07,0-.12-.01-.18-.03-.05-.02-.09-.05-.13-.09-.03-.04-.06-.09-.08-.15-.02-.06-.03-.12-.03-.19,0-.06,0-.12.02-.18.01-.06.03-.12.05-.17s.05-.11.09-.16c.04-.05.07-.09.12-.13.04-.04.09-.06.15-.08.05-.02.11-.03.18-.03.06,0,.11,0,.15.02.04.02.07.04.1.06.03.02.04.05.05.08.01.03.02.05.02.08Zm-.32-.16c-.06,0-.12.01-.17.04-.05.03-.1.06-.14.11s-.07.1-.1.16c-.03.06-.05.12-.06.19.1-.01.19-.02.26-.04.07-.01.13-.03.19-.05.05-.02.09-.03.12-.05.03-.02.06-.04.07-.06.02-.02.03-.04.04-.06s0-.04,0-.07c0-.02,0-.03-.01-.05,0-.02-.02-.04-.04-.05-.02-.02-.04-.03-.07-.04s-.06-.02-.1-.02Z"/>
      <path class="cls-2" d="m30.31,13.79l.21-1.74h.11l-.21,1.74h-.11Z"/>
      <path class="cls-2" d="m31.21,13.8c-.06,0-.12-.01-.17-.03-.05-.02-.1-.05-.13-.1-.04-.04-.07-.09-.09-.15s-.03-.13-.03-.2c0-.1.01-.19.04-.28.03-.09.07-.17.12-.23.05-.07.11-.12.19-.16.07-.04.15-.06.24-.06.06,0,.12.01.17.03.05.02.1.06.13.1.04.04.07.09.09.15s.03.13.03.2c0,.1-.01.19-.04.28-.03.09-.07.17-.12.23-.05.07-.11.12-.19.16-.07.04-.15.06-.24.06Zm0-.09c.07,0,.13-.02.19-.05s.11-.08.15-.14c.04-.06.07-.13.09-.21.02-.08.03-.16.03-.24,0-.13-.03-.23-.08-.29-.06-.07-.13-.1-.23-.1-.05,0-.09,0-.13.02-.04.02-.08.04-.11.07-.03.03-.07.06-.09.1-.03.04-.05.08-.07.13-.02.05-.03.1-.04.15s-.01.11-.01.16c0,.13.03.22.08.29.06.07.13.1.24.1Z"/>
      <path class="cls-2" d="m31.94,14.21l.2-1.61h.05s.04.01.04.04l-.04.37c.03-.06.07-.12.1-.18.04-.05.08-.1.12-.14.04-.04.09-.07.14-.09.05-.02.09-.03.14-.03.05,0,.1.01.14.03.04.02.07.05.1.08.03.04.05.08.06.13.01.05.02.11.02.17s0,.12-.02.19c-.01.06-.03.12-.05.18-.02.06-.05.12-.09.17-.03.05-.07.1-.12.14s-.09.07-.14.09c-.05.02-.11.03-.16.03-.06,0-.12-.01-.18-.04-.05-.03-.1-.07-.13-.13l-.07.57h-.11Zm.72-1.53s-.09.01-.14.04c-.05.03-.09.06-.13.11-.04.05-.08.1-.12.17-.04.06-.07.14-.1.22l-.04.34c.03.06.08.11.13.13.05.03.1.04.16.04.05,0,.1-.01.14-.03.04-.02.08-.05.12-.08.04-.03.07-.08.09-.12s.05-.1.07-.15.03-.1.04-.16.01-.11.01-.16c0-.11-.02-.19-.06-.25-.04-.06-.1-.09-.18-.09Z"/>
      <path class="cls-2" d="m34.08,12.83s0,.06-.01.09c0,.03-.02.06-.05.08-.02.03-.05.05-.09.07s-.09.04-.15.06-.13.04-.21.05-.18.03-.29.04c0,.02,0,.03,0,.05,0,.02,0,.03,0,.05,0,.12.03.21.08.28s.13.1.24.1c.04,0,.08,0,.11-.01.03,0,.06-.02.09-.04.03-.01.05-.03.07-.05.02-.02.04-.03.05-.05.02-.01.03-.03.04-.04.01,0,.02-.01.03-.01,0,0,.02,0,.02.01l.03.03s-.08.08-.11.11c-.04.03-.08.05-.11.07-.04.02-.08.03-.12.04-.04,0-.08.01-.13.01-.07,0-.12-.01-.18-.03-.05-.02-.09-.05-.13-.09-.03-.04-.06-.09-.08-.15-.02-.06-.03-.12-.03-.19,0-.06,0-.12.02-.18.01-.06.03-.12.05-.17s.05-.11.09-.16c.04-.05.07-.09.12-.13.04-.04.09-.06.15-.08.05-.02.11-.03.18-.03.06,0,.11,0,.15.02.04.02.07.04.1.06.03.02.04.05.05.08.01.03.02.05.02.08Zm-.32-.16c-.06,0-.12.01-.17.04-.05.03-.1.06-.14.11s-.07.1-.1.16c-.03.06-.05.12-.06.19.1-.01.19-.02.26-.04.07-.01.13-.03.19-.05.05-.02.09-.03.12-.05.03-.02.06-.04.07-.06.02-.02.03-.04.04-.06s0-.04,0-.07c0-.02,0-.03-.01-.05,0-.02-.02-.04-.04-.05-.02-.02-.04-.03-.07-.04s-.06-.02-.1-.02Z"/>
      <path class="cls-2" d="m34.27,13.79l.14-1.19h.05s.04.01.04.04l-.04.35c.05-.13.12-.23.19-.3.07-.07.14-.11.22-.11.03,0,.07,0,.1.02l-.02.11s-.07-.02-.1-.02c-.08,0-.16.04-.23.13-.07.08-.13.21-.17.36l-.07.6h-.11Z"/>
      <path class="cls-2" d="m35.44,13.84s-.02.03-.03.03c-.01,0-.03.01-.04.01h-.04l.9-1.78s.04-.04.07-.04h.05l-.89,1.78Z"/>
      <path class="cls-2" d="m37.41,13.7c.07,0,.14-.01.2-.04.06-.03.12-.07.16-.12.05-.05.08-.11.12-.18s.05-.14.06-.22l.13-1.04h.12l-.13,1.04c-.01.09-.04.18-.07.26-.04.08-.08.15-.14.21s-.13.11-.2.14-.16.05-.25.05c-.08,0-.16-.01-.22-.04-.06-.03-.12-.07-.16-.12-.04-.05-.08-.11-.1-.18s-.03-.14-.03-.22c0-.03,0-.07,0-.11l.13-1.04h.12l-.13,1.04s0,.03,0,.05c0,.02,0,.03,0,.05,0,.07,0,.13.03.19.02.06.04.11.08.15.03.04.08.07.13.1s.11.04.18.04Z"/>
      <path class="cls-2" d="m38.89,12.88l-.42-.79h.11s.02,0,.02,0,0,.01.01.02l.36.7s.01-.02.02-.03l.52-.67s.02-.02.04-.02h.12l-.61.78.47.91h-.11s-.02,0-.03,0c0,0,0-.01-.01-.02l-.41-.81s0,0,0,.01c0,0,0,0,0,.01l-.6.78s-.01.02-.02.02c0,0-.02,0-.03,0h-.12l.7-.9Z"/>
      <path class="cls-2" d="m41.64,12.81c0,.1,0,.19-.03.28-.02.09-.05.17-.08.24-.04.07-.08.14-.13.19-.05.06-.11.1-.17.14-.06.04-.13.07-.21.09-.07.02-.15.03-.23.03h-.57l.21-1.69h.57c.1,0,.19.02.27.05.08.03.15.08.21.14.06.06.1.14.13.23.03.09.05.19.05.3Zm-.12,0c0-.1-.01-.18-.04-.26-.02-.08-.06-.14-.11-.2-.05-.05-.1-.09-.17-.12-.07-.03-.14-.04-.22-.04h-.45l-.19,1.5h.45c.1,0,.2-.02.29-.06.09-.04.17-.1.23-.17.06-.07.11-.17.15-.27.04-.11.05-.23.05-.37Z"/>
      <path class="cls-2" d="m42.72,12.83s0,.06-.01.09c0,.03-.02.06-.05.08-.02.03-.05.05-.09.07s-.09.04-.15.06-.13.04-.21.05-.18.03-.29.04c0,.02,0,.03,0,.05,0,.02,0,.03,0,.05,0,.12.03.21.08.28s.13.1.24.1c.04,0,.08,0,.11-.01.03,0,.06-.02.09-.04.03-.01.05-.03.07-.05.02-.02.04-.03.05-.05.02-.01.03-.03.04-.04.01,0,.02-.01.03-.01,0,0,.02,0,.02.01l.03.03s-.08.08-.11.11c-.04.03-.08.05-.11.07-.04.02-.08.03-.12.04-.04,0-.08.01-.13.01-.07,0-.12-.01-.18-.03-.05-.02-.09-.05-.13-.09-.03-.04-.06-.09-.08-.15-.02-.06-.03-.12-.03-.19,0-.06,0-.12.02-.18.01-.06.03-.12.05-.17s.05-.11.09-.16c.04-.05.07-.09.12-.13.04-.04.09-.06.15-.08.05-.02.11-.03.18-.03.06,0,.11,0,.15.02.04.02.07.04.1.06.03.02.04.05.05.08.01.03.02.05.02.08Zm-.32-.16c-.06,0-.12.01-.17.04-.05.03-.1.06-.14.11s-.07.1-.1.16c-.03.06-.05.12-.06.19.1-.01.19-.02.26-.04.07-.01.13-.03.19-.05.05-.02.09-.03.12-.05.03-.02.06-.04.07-.06.02-.02.03-.04.04-.06s0-.04,0-.07c0-.02,0-.03-.01-.05,0-.02-.02-.04-.04-.05-.02-.02-.04-.03-.07-.04s-.06-.02-.1-.02Z"/>
      <path class="cls-2" d="m43.64,12.75s-.02.02-.03.02c0,0-.02,0-.03-.01-.01-.01-.03-.02-.05-.03-.02-.01-.04-.02-.07-.03-.03-.01-.07-.02-.11-.02-.04,0-.08,0-.11.02-.04.01-.07.03-.09.05-.03.02-.05.05-.06.08s-.02.06-.02.09,0,.06.02.08c.01.02.04.04.06.06.03.02.05.03.08.04.03.01.06.02.1.04.03.01.07.02.1.04.03.02.06.03.08.05.03.02.04.05.06.08.01.03.02.07.02.11,0,.05,0,.1-.03.15-.02.05-.05.09-.09.13-.04.04-.08.07-.14.09-.05.02-.11.03-.18.03-.08,0-.14-.01-.19-.04-.05-.03-.1-.06-.13-.1l.03-.04s0-.01.01-.01c0,0,.01,0,.02,0,0,0,.02,0,.03.02s.03.03.05.04c.02.02.05.03.08.04.03.01.07.02.12.02.05,0,.09,0,.13-.02.04-.02.07-.04.1-.06.03-.03.05-.06.06-.09.02-.04.02-.07.02-.11,0-.04,0-.06-.02-.09-.01-.02-.04-.04-.06-.06s-.05-.03-.08-.04c-.03-.01-.06-.02-.1-.04-.03-.01-.07-.02-.1-.04-.03-.01-.06-.03-.08-.05-.02-.02-.04-.04-.06-.07-.01-.03-.02-.06-.02-.1,0-.05,0-.09.03-.13.02-.04.05-.08.08-.11.04-.03.08-.06.13-.08.05-.02.1-.03.16-.03.07,0,.12.01.17.03.05.02.09.05.13.09l-.03.04Z"/>
      <path class="cls-2" d="m44.11,12.6l-.14,1.19h-.11l.14-1.19h.11Zm.09-.41s0,.03,0,.04c0,.01-.01.02-.02.03,0,0-.02.02-.03.02-.01,0-.03,0-.04,0s-.03,0-.04,0c-.01,0-.02-.01-.03-.02,0,0-.02-.02-.02-.03,0-.01,0-.03,0-.04s0-.03,0-.04c0-.01.01-.02.02-.03s.02-.02.03-.02c.01,0,.03,0,.04,0s.03,0,.04,0c.01,0,.02.01.03.02,0,0,.02.02.02.03,0,.01,0,.03,0,.04Z"/>
      <path class="cls-2" d="m45.16,12.91s0,.08-.02.12-.02.07-.04.1c-.02.03-.03.06-.05.08s-.04.05-.05.08c-.02.02-.03.05-.04.08-.01.03-.02.05-.02.08,0,.02,0,.05.01.07,0,.02.02.04.04.06.01.02.03.04.05.06.02.02.03.04.05.06.01.02.03.04.04.07,0,.03.01.05.01.08,0,.05-.01.1-.04.15-.03.05-.06.09-.11.12s-.1.06-.17.09c-.07.02-.14.03-.22.03-.06,0-.12,0-.17-.02-.05-.01-.1-.03-.14-.06-.04-.02-.07-.05-.09-.09-.02-.04-.03-.07-.03-.12,0-.06.01-.11.04-.15.03-.04.07-.08.12-.11.05-.03.11-.05.18-.07.07-.02.14-.02.22-.02.03,0,.05,0,.08,0s.05,0,.08,0c-.01-.02-.02-.04-.03-.06,0-.02-.01-.04-.01-.07,0-.03,0-.06.01-.09s.03-.06.05-.1c-.03.02-.07.04-.1.05-.04.01-.08.02-.12.02-.05,0-.09,0-.13-.02-.04-.01-.07-.04-.1-.06-.03-.03-.05-.06-.07-.1-.02-.04-.02-.09-.02-.14s0-.11.03-.16c.02-.05.05-.1.08-.14.04-.04.08-.07.14-.1.05-.02.12-.04.18-.04.04,0,.08,0,.11.02.04,0,.07.02.1.04h.31v.04s0,.02-.01.02c0,0-.01,0-.02.01l-.19.02s.03.05.03.08.01.06.01.1Zm-.13.94s0-.07-.02-.1-.03-.05-.05-.08h0s-.08,0-.11,0c-.03,0-.07,0-.1,0-.08,0-.15,0-.21.02-.06.01-.11.03-.14.06-.04.02-.07.05-.09.09-.02.03-.03.07-.03.1,0,.03,0,.06.02.09.02.03.04.05.07.07.03.02.06.03.1.04.04,0,.08.01.13.01.06,0,.12,0,.17-.02.05-.02.09-.04.13-.07s.06-.06.08-.1c.02-.04.03-.07.03-.11Zm-.3-.57c.05,0,.1-.01.14-.03s.07-.05.1-.08c.03-.03.05-.07.06-.12.01-.04.02-.09.02-.13,0-.08-.02-.15-.07-.19-.04-.04-.1-.06-.18-.06-.05,0-.1.01-.14.03-.04.02-.07.05-.1.08-.03.03-.05.07-.06.11-.01.04-.02.09-.02.13,0,.08.02.15.06.19.04.04.1.07.18.07Z"/>
      <path class="cls-2" d="m45.42,13.79l.14-1.19h.05s.04.01.04.04l-.04.34c.03-.06.07-.12.11-.17.04-.05.08-.09.12-.13.04-.03.09-.06.13-.08.05-.02.09-.03.14-.03.09,0,.16.03.2.09.04.06.07.14.07.25,0,0,0,.02,0,.02,0,0,0,.02,0,.04,0,.02,0,.05,0,.08s0,.08-.02.15c0,.06-.02.14-.03.23-.01.09-.02.21-.04.34h-.11l.09-.76s0-.07,0-.1c0-.08-.02-.14-.05-.18-.03-.04-.08-.06-.15-.06-.04,0-.09.01-.13.03s-.09.05-.13.1c-.04.04-.08.09-.12.15-.04.06-.07.13-.1.2l-.07.63h-.11Z"/>
      <path class="cls-2" d="m47.53,12.83s0,.06-.01.09c0,.03-.02.06-.05.08-.02.03-.05.05-.09.07s-.09.04-.15.06-.13.04-.21.05-.18.03-.29.04c0,.02,0,.03,0,.05,0,.02,0,.03,0,.05,0,.12.03.21.08.28s.13.1.24.1c.04,0,.08,0,.11-.01.03,0,.06-.02.09-.04.03-.01.05-.03.07-.05.02-.02.04-.03.05-.05.02-.01.03-.03.04-.04.01,0,.02-.01.03-.01,0,0,.02,0,.02.01l.03.03s-.08.08-.11.11c-.04.03-.08.05-.11.07-.04.02-.08.03-.12.04-.04,0-.08.01-.13.01-.07,0-.12-.01-.18-.03-.05-.02-.09-.05-.13-.09-.03-.04-.06-.09-.08-.15-.02-.06-.03-.12-.03-.19,0-.06,0-.12.02-.18.01-.06.03-.12.05-.17s.05-.11.09-.16c.04-.05.07-.09.12-.13.04-.04.09-.06.15-.08.05-.02.11-.03.18-.03.06,0,.11,0,.15.02.04.02.07.04.1.06.03.02.04.05.05.08.01.03.02.05.02.08Zm-.32-.16c-.06,0-.12.01-.17.04-.05.03-.1.06-.14.11s-.07.1-.1.16c-.03.06-.05.12-.06.19.1-.01.19-.02.26-.04.07-.01.13-.03.19-.05.05-.02.09-.03.12-.05.03-.02.06-.04.07-.06.02-.02.03-.04.04-.06s0-.04,0-.07c0-.02,0-.03-.01-.05,0-.02-.02-.04-.04-.05-.02-.02-.04-.03-.07-.04s-.06-.02-.1-.02Z"/>
      <path class="cls-2" d="m47.71,13.79l.14-1.19h.05s.04.01.04.04l-.04.35c.05-.13.12-.23.19-.3.07-.07.14-.11.22-.11.03,0,.07,0,.1.02l-.02.11s-.07-.02-.1-.02c-.08,0-.16.04-.23.13-.07.08-.13.21-.17.36l-.07.6h-.11Z"/>
    </g>
  </g>
</svg>