<?xml version="1.0" encoding="UTF-8"?>
<svg id="Capa_1" data-name="Capa 1" xmlns="http://www.w3.org/2000/svg" viewBox="0 0 18 17.13">
  <defs>
    <style>
      .cls-1 {
        fill: #ff4900;
      }

      .cls-1, .cls-2 {
        stroke-width: 0px;
      }

      .cls-2 {
        fill: #f9f9f9;
      }
    </style>
  </defs>
  <path class="cls-1" d="m15.71,8.36h-5.52c-.66,0-1.19-.53-1.19-1.19V1.65c0-.73.65-1.3,1.36-1.18,3.32.58,5.95,3.22,6.52,6.52.12.71-.45,1.36-1.18,1.36Z"/>
  <path class="cls-2" d="m9,9.66v5.52c0,.66-.53,1.19-1.19,1.19H2.29c-.73,0-1.3-.65-1.18-1.36.58-3.32,3.22-5.95,6.52-6.52.71-.12,1.36.45,1.36,1.18Z"/>
  <circle class="cls-2" cx="13.49" cy="12.86" r="3.51"/>
  <circle class="cls-2" cx="4.51" cy="4.36" r="3.51"/>
</svg>